<svg width="22" height="18" viewBox="0 0 22 18" fill="none" xmlns="http://www.w3.org/2000/svg">
<mask id="path-1-outside-1_4_22" maskUnits="userSpaceOnUse" x="0.884766" y="0.641113" width="21" height="17" fill="black">
<rect fill="white" x="0.884766" y="0.641113" width="21" height="17"/>
<path d="M13.3576 8.00382H11.6012C11.5438 8.00388 11.4882 8.02458 11.4444 8.06225C11.4006 8.09993 11.3713 8.15215 11.3617 8.20967L11.0682 9.99462C11.0624 10.03 11.0641 10.0663 11.0734 10.1009C11.0827 10.1355 11.0993 10.1676 11.1221 10.1951C11.1449 10.2225 11.1733 10.2446 11.2053 10.2597C11.2373 10.2749 11.2722 10.2827 11.3075 10.2828H13.0641C13.1214 10.2827 13.1769 10.262 13.2207 10.2243C13.2645 10.1866 13.2937 10.1344 13.3033 10.077L13.597 8.29201C13.6029 8.25661 13.6011 8.22033 13.5918 8.1857C13.5825 8.15107 13.5658 8.11892 13.543 8.09148C13.5203 8.06405 13.4919 8.042 13.4598 8.02685C13.4278 8.01171 13.3929 8.00385 13.3576 8.00382ZM12.8587 9.78877H11.5941L11.8066 8.49683H13.0711L12.8587 9.78877ZM17.3867 8.00382H15.6301C15.5727 8.00392 15.5172 8.02465 15.4734 8.06232C15.4297 8.09999 15.4004 8.15219 15.3909 8.20967L15.0973 9.99462C15.0915 10.03 15.0932 10.0663 15.1025 10.1009C15.1118 10.1355 15.1285 10.1676 15.1512 10.1951C15.174 10.2225 15.2024 10.2446 15.2344 10.2597C15.2664 10.2749 15.3013 10.2827 15.3366 10.2828H17.0932C17.1505 10.2827 17.206 10.262 17.2498 10.2243C17.2936 10.1866 17.3228 10.1344 17.3324 10.077L17.6259 8.29201C17.6318 8.25663 17.63 8.22037 17.6207 8.18575C17.6114 8.15113 17.5948 8.11899 17.572 8.09156C17.5492 8.06413 17.5209 8.04207 17.4889 8.02692C17.4569 8.01177 17.422 8.00388 17.3867 8.00382ZM16.8876 9.78877H15.623L15.8355 8.49683H17.1L16.8876 9.78877ZM12.8544 11.0632H11.0978C11.0404 11.0633 10.985 11.084 10.9412 11.1217C10.8974 11.1594 10.8682 11.2116 10.8586 11.2691L10.5651 13.0542C10.5594 13.0895 10.5613 13.1257 10.5706 13.1602C10.58 13.1946 10.5967 13.2267 10.6194 13.254C10.6422 13.2813 10.6705 13.3032 10.7024 13.3183C10.7343 13.3334 10.7691 13.3413 10.8043 13.3414H12.5609C12.6183 13.3413 12.6737 13.3205 12.7175 13.2829C12.7613 13.2452 12.7906 13.193 12.8001 13.1355L13.0936 11.3504C13.0995 11.315 13.0977 11.2787 13.0884 11.2441C13.0791 11.2095 13.0625 11.1773 13.0398 11.1499C13.017 11.1225 12.9886 11.1004 12.9566 11.0853C12.9246 11.0701 12.8897 11.0622 12.8544 11.0622V11.0632ZM12.3553 12.8481H11.0907L11.3038 11.5562H12.5678L12.3553 12.8481ZM20.1151 3.42297C20.1149 3.18573 20.022 2.95828 19.8569 2.79053C19.6919 2.62277 19.4681 2.52841 19.2346 2.52813H17.4051V2.40462C17.4049 2.20219 17.3257 2.00812 17.1848 1.86498C17.044 1.72184 16.853 1.64133 16.6538 1.64111H16.5831C16.3839 1.64133 16.193 1.72184 16.0521 1.86498C15.9113 2.00812 15.832 2.20219 15.8318 2.40462V2.52813H13.6535V2.40462C13.6533 2.20219 13.5741 2.00812 13.4332 1.86498C13.2924 1.72184 13.1014 1.64133 12.9022 1.64111H12.8315C12.6323 1.64133 12.4414 1.72184 12.3005 1.86498C12.1597 2.00812 12.0804 2.20219 12.0802 2.40462V2.52813H9.89968V2.40462C9.89946 2.20223 9.82027 2.00819 9.67946 1.86505C9.53866 1.72192 9.34774 1.64139 9.14859 1.64111H9.07769C8.87854 1.64128 8.68758 1.72171 8.5467 1.86476C8.40582 2.00782 8.32652 2.20182 8.3262 2.40421V2.52772H6.49709C6.26361 2.52794 6.03974 2.62228 5.87463 2.79004C5.70951 2.9578 5.61663 3.18528 5.61636 3.42256V5.16222L5.13407 8.32206C4.53476 8.43983 3.9698 8.69506 3.48225 9.06831C2.99469 9.44156 2.59741 9.92299 2.32066 10.4759C2.04391 11.0288 1.895 11.6386 1.88527 12.2589C1.87555 12.8792 2.00527 13.4935 2.26455 14.0551C2.52382 14.6167 2.90582 15.1107 3.38142 15.4996C3.85703 15.8884 4.4137 16.1618 5.00902 16.2989C5.60433 16.436 6.22259 16.4332 6.81668 16.2907C7.41077 16.1482 7.96502 15.8698 8.4372 15.4767H17.6998C17.9121 15.468 18.1166 15.393 18.2853 15.2618C18.454 15.1306 18.5788 14.9496 18.6425 14.7436H19.186C19.4128 14.7497 19.6328 14.6645 19.7982 14.5068C19.9637 14.349 20.0613 14.1313 20.0698 13.9009L20.1127 5.22851C20.1142 5.21773 20.115 5.20687 20.1151 5.19598V3.42297ZM16.3172 2.40421C16.3173 2.3325 16.3453 2.26377 16.3952 2.21306C16.4451 2.16236 16.5128 2.13383 16.5833 2.13372H16.654C16.7246 2.13383 16.7922 2.16236 16.8421 2.21306C16.892 2.26377 16.9201 2.3325 16.9202 2.40421V3.21259C16.9202 3.24816 16.9133 3.28338 16.9 3.31625C16.8866 3.34911 16.867 3.37898 16.8422 3.40414C16.8175 3.4293 16.7881 3.44925 16.7558 3.46287C16.7235 3.47649 16.6888 3.4835 16.6538 3.4835H16.5831C16.5126 3.48344 16.4449 3.45495 16.395 3.40428C16.3451 3.35361 16.3171 3.2849 16.317 3.21321L16.3172 2.40421ZM12.5645 2.40421C12.5647 2.3325 12.5927 2.26377 12.6426 2.21306C12.6925 2.16236 12.7601 2.13383 12.8307 2.13372H12.9014C12.9719 2.13383 13.0396 2.16237 13.0894 2.21308C13.1393 2.26379 13.1673 2.33252 13.1674 2.40421V3.21259C13.1674 3.24815 13.1606 3.28337 13.1472 3.31623C13.1339 3.3491 13.1143 3.37896 13.0895 3.40413C13.0648 3.42929 13.0355 3.44925 13.0031 3.46287C12.9708 3.47649 12.9362 3.4835 12.9012 3.4835H12.8305C12.76 3.48344 12.6923 3.45495 12.6424 3.40428C12.5925 3.35361 12.5644 3.2849 12.5643 3.21321L12.5645 2.40421ZM8.81193 2.40421C8.81199 2.33252 8.84002 2.26379 8.88988 2.21308C8.93974 2.16237 9.00736 2.13383 9.0779 2.13372H9.14879C9.21933 2.13383 9.28695 2.16237 9.33681 2.21308C9.38667 2.26379 9.4147 2.33252 9.41475 2.40421V3.21259C9.4148 3.24815 9.40796 3.28337 9.39461 3.31623C9.38125 3.3491 9.36166 3.37896 9.33694 3.40413C9.31222 3.42929 9.28286 3.44925 9.25054 3.46287C9.21822 3.47649 9.18358 3.4835 9.14859 3.4835H9.07769C9.00717 3.48328 8.93962 3.45463 8.88987 3.40383C8.84012 3.35304 8.81223 3.28426 8.81234 3.21259L8.81193 2.40421ZM6.49749 3.02177H8.3262V3.21321C8.32641 3.41564 8.40564 3.60971 8.54648 3.75285C8.68733 3.89599 8.8783 3.9765 9.07749 3.97672H9.14839C9.34754 3.97645 9.53846 3.89591 9.67926 3.75278C9.82007 3.60965 9.89926 3.4156 9.89948 3.21321V3.02177H12.079V3.21321C12.0792 3.41564 12.1584 3.60971 12.2993 3.75285C12.4401 3.89599 12.6311 3.9765 12.8303 3.97672H12.901C12.9998 3.97677 13.0976 3.95705 13.1889 3.91868C13.2802 3.8803 13.3631 3.82403 13.433 3.75307C13.5029 3.68211 13.5583 3.59786 13.5962 3.50512C13.634 3.41239 13.6535 3.31298 13.6535 3.21259V3.02115H15.8318V3.21259C15.832 3.41502 15.9113 3.6091 16.0521 3.75223C16.193 3.89537 16.3839 3.97588 16.5831 3.9761H16.6538C16.853 3.97588 17.044 3.89537 17.1848 3.75223C17.3257 3.6091 17.4049 3.41502 17.4051 3.21259V3.02115H19.2344C19.3391 3.02153 19.4394 3.06401 19.5133 3.13931C19.5872 3.21461 19.6288 3.3166 19.629 3.42297V4.93496H6.1019V3.42297C6.102 3.31644 6.1437 3.2143 6.21782 3.13896C6.29195 3.06363 6.39246 3.02126 6.49729 3.02115L6.49749 3.02177ZM2.37096 12.3245C2.371 11.6157 2.57788 10.9228 2.96543 10.3335C3.35299 9.74416 3.90381 9.28489 4.54822 9.01374C5.19264 8.7426 5.90171 8.67176 6.58575 8.81018C7.26978 8.94861 7.89806 9.29008 8.39112 9.79142C8.88417 10.2927 9.21986 10.9314 9.35572 11.6266C9.49157 12.3219 9.4215 13.0424 9.15436 13.6972C8.88722 14.352 8.43501 14.9115 7.85493 15.305C7.27485 15.6986 6.59295 15.9085 5.89549 15.9082C4.96085 15.9067 4.06494 15.5286 3.40422 14.8568C2.74351 14.185 2.37192 13.2743 2.37096 12.3245ZM8.86318 9.58374C8.54361 9.22647 8.16439 8.92945 7.74303 8.70639L7.77746 8.49683H9.04204L8.86318 9.58374ZM17.6998 14.9837H8.93388C9.49995 14.3174 9.83815 13.4826 9.89772 12.6045C9.95729 11.7263 9.73501 10.8523 9.26425 10.1134C9.26842 10.1012 9.27154 10.0887 9.27357 10.0759L9.56728 8.29098C9.57316 8.2556 9.57139 8.21934 9.56209 8.18472C9.55278 8.1501 9.53617 8.11796 9.5134 8.09053C9.49063 8.0631 9.46226 8.04104 9.43025 8.02589C9.39824 8.01074 9.36337 8.00285 9.32805 8.00279H7.57207C7.5147 8.00289 7.45923 8.02362 7.41545 8.06129C7.37167 8.09896 7.34241 8.15116 7.33285 8.20864L7.28504 8.49889C6.84019 8.33207 6.36966 8.24709 5.89549 8.24796C5.80785 8.24796 5.72081 8.25091 5.63439 8.25681L6.06625 5.42819H19.5885L18.204 14.4939C18.1862 14.6212 18.1268 14.7387 18.0354 14.8275C17.9439 14.9164 17.8257 14.9714 17.6998 14.9837ZM19.186 14.2496H18.7331L19.6112 8.49827L19.5846 13.8976C19.5757 13.9972 19.5292 14.0894 19.4549 14.155C19.3806 14.2206 19.2843 14.2545 19.186 14.2496ZM16.8835 11.0632H15.1269C15.0696 11.0633 15.0141 11.084 14.9703 11.1217C14.9265 11.1594 14.8973 11.2116 14.8877 11.2691L14.594 13.0542C14.5883 13.0895 14.5902 13.1257 14.5996 13.1602C14.6089 13.1947 14.6256 13.2267 14.6484 13.254C14.6711 13.2814 14.6995 13.3033 14.7314 13.3184C14.7634 13.3335 14.7982 13.3413 14.8334 13.3414H16.5906C16.648 13.3413 16.7035 13.3206 16.7474 13.2829C16.7912 13.2453 16.8205 13.193 16.83 13.1355L17.1235 11.3504C17.1294 11.315 17.1277 11.2787 17.1184 11.2441C17.109 11.2095 17.0924 11.1773 17.0697 11.1499C17.0469 11.1225 17.0185 11.1004 16.9865 11.0853C16.9545 11.0701 16.9196 11.0622 16.8843 11.0622L16.8835 11.0632ZM16.3844 12.8481H15.1198L15.3323 11.5562H16.5969L16.3844 12.8481ZM5.89549 9.12818C5.27342 9.12835 4.66538 9.31596 4.14823 9.6673C3.63109 10.0186 3.22807 10.5179 2.99013 11.102C2.7522 11.6862 2.69004 12.3288 2.81151 12.9488C2.93298 13.5689 3.23263 14.1383 3.67257 14.5853C4.1125 15.0322 4.67297 15.3366 5.2831 15.4598C5.89322 15.5831 6.52561 15.5197 7.10029 15.2777C7.67498 15.0357 8.16615 14.626 8.51171 14.1003C8.85726 13.5746 9.04168 12.9566 9.04164 12.3245C9.04073 11.4769 8.70893 10.6643 8.11908 10.065C7.52923 9.46576 6.72953 9.12884 5.89549 9.12818ZM5.89549 15.0279C5.36938 15.0278 4.85514 14.8691 4.41778 14.5719C3.98041 14.2747 3.63957 13.8525 3.43835 13.3585C3.23713 12.8645 3.18457 12.3209 3.2873 11.7965C3.39004 11.2722 3.64346 10.7905 4.01553 10.4125C4.3876 10.0345 4.86161 9.77713 5.37762 9.67288C5.89362 9.56863 6.42846 9.62222 6.9145 9.82686C7.40055 10.0315 7.81597 10.378 8.10824 10.8226C8.40051 11.2671 8.55651 11.7898 8.55651 12.3245C8.55576 13.0414 8.27513 13.7287 7.77623 14.2355C7.27734 14.7424 6.60093 15.0274 5.89549 15.0279ZM5.44054 11.6147C5.4407 11.7375 5.48876 11.8552 5.57419 11.9421C5.65962 12.0289 5.77545 12.0778 5.8963 12.0781C6.12476 12.0779 6.34546 12.1623 6.51721 12.3154C6.68896 12.4685 6.80003 12.6799 6.82969 12.9101C6.85935 13.1403 6.80558 13.3736 6.6784 13.5665C6.55123 13.7594 6.35935 13.8986 6.13856 13.9583V14.2397C6.1407 14.2734 6.13602 14.3072 6.1248 14.339C6.11358 14.3708 6.09606 14.3999 6.07333 14.4246C6.0506 14.4492 6.02313 14.4689 5.99263 14.4823C5.96212 14.4957 5.92924 14.5027 5.89599 14.5027C5.86275 14.5027 5.82986 14.4957 5.79936 14.4823C5.76886 14.4689 5.74139 14.4492 5.71866 14.4246C5.69593 14.3999 5.67841 14.3708 5.66719 14.339C5.65597 14.3072 5.65129 14.2734 5.65343 14.2397V13.9583C5.45344 13.9037 5.27671 13.7837 5.15054 13.6168C5.02438 13.45 4.9558 13.2455 4.95541 13.0351C4.9594 12.9724 4.98668 12.9137 5.03174 12.8708C5.07679 12.8279 5.13622 12.804 5.19798 12.804C5.25973 12.804 5.31916 12.8279 5.36422 12.8708C5.40927 12.9137 5.43656 12.9724 5.44054 13.0351C5.4405 13.1267 5.46721 13.2163 5.5173 13.2926C5.56739 13.3688 5.63859 13.4282 5.72192 13.4633C5.80524 13.4984 5.89694 13.5076 5.9854 13.4897C6.07387 13.4719 6.15513 13.4277 6.21891 13.3629C6.28269 13.2981 6.32612 13.2155 6.34371 13.1256C6.3613 13.0357 6.35225 12.9425 6.31771 12.8578C6.28318 12.7732 6.22471 12.7008 6.14969 12.6499C6.07468 12.599 5.9865 12.5719 5.8963 12.5719C5.66785 12.572 5.44716 12.4877 5.27539 12.3346C5.10361 12.1816 4.99249 11.9703 4.96273 11.7401C4.93298 11.5099 4.98663 11.2766 5.11368 11.0836C5.24073 10.8907 5.4325 10.7513 5.65323 10.6914V10.4092C5.65721 10.3466 5.6845 10.2878 5.72955 10.2449C5.7746 10.202 5.83404 10.1781 5.89579 10.1781C5.95754 10.1781 6.01698 10.202 6.06203 10.2449C6.10708 10.2878 6.13437 10.3466 6.13836 10.4092V10.6906C6.33863 10.7451 6.51565 10.8652 6.64202 11.0322C6.76838 11.1993 6.83705 11.404 6.83739 11.6147C6.83953 11.6484 6.83485 11.6822 6.82363 11.714C6.81241 11.7458 6.79489 11.7749 6.77216 11.7996C6.74942 11.8242 6.72196 11.8439 6.69145 11.8573C6.66095 11.8707 6.62807 11.8776 6.59482 11.8776C6.56158 11.8776 6.52869 11.8707 6.49819 11.8573C6.46769 11.8439 6.44022 11.8242 6.41749 11.7996C6.39475 11.7749 6.37724 11.7458 6.36602 11.714C6.3548 11.6822 6.35011 11.6484 6.35226 11.6147C6.34872 11.4942 6.29916 11.3799 6.21407 11.296C6.12899 11.2121 6.01508 11.1651 5.8965 11.1651C5.77793 11.1651 5.66401 11.2121 5.57893 11.296C5.49384 11.3799 5.44407 11.4942 5.44054 11.6147Z"/>
</mask>
<path d="M13.3576 8.00382H11.6012C11.5438 8.00388 11.4882 8.02458 11.4444 8.06225C11.4006 8.09993 11.3713 8.15215 11.3617 8.20967L11.0682 9.99462C11.0624 10.03 11.0641 10.0663 11.0734 10.1009C11.0827 10.1355 11.0993 10.1676 11.1221 10.1951C11.1449 10.2225 11.1733 10.2446 11.2053 10.2597C11.2373 10.2749 11.2722 10.2827 11.3075 10.2828H13.0641C13.1214 10.2827 13.1769 10.262 13.2207 10.2243C13.2645 10.1866 13.2937 10.1344 13.3033 10.077L13.597 8.29201C13.6029 8.25661 13.6011 8.22033 13.5918 8.1857C13.5825 8.15107 13.5658 8.11892 13.543 8.09148C13.5203 8.06405 13.4919 8.042 13.4598 8.02685C13.4278 8.01171 13.3929 8.00385 13.3576 8.00382ZM12.8587 9.78877H11.5941L11.8066 8.49683H13.0711L12.8587 9.78877ZM17.3867 8.00382H15.6301C15.5727 8.00392 15.5172 8.02465 15.4734 8.06232C15.4297 8.09999 15.4004 8.15219 15.3909 8.20967L15.0973 9.99462C15.0915 10.03 15.0932 10.0663 15.1025 10.1009C15.1118 10.1355 15.1285 10.1676 15.1512 10.1951C15.174 10.2225 15.2024 10.2446 15.2344 10.2597C15.2664 10.2749 15.3013 10.2827 15.3366 10.2828H17.0932C17.1505 10.2827 17.206 10.262 17.2498 10.2243C17.2936 10.1866 17.3228 10.1344 17.3324 10.077L17.6259 8.29201C17.6318 8.25663 17.63 8.22037 17.6207 8.18575C17.6114 8.15113 17.5948 8.11899 17.572 8.09156C17.5492 8.06413 17.5209 8.04207 17.4889 8.02692C17.4569 8.01177 17.422 8.00388 17.3867 8.00382ZM16.8876 9.78877H15.623L15.8355 8.49683H17.1L16.8876 9.78877ZM12.8544 11.0632H11.0978C11.0404 11.0633 10.985 11.084 10.9412 11.1217C10.8974 11.1594 10.8682 11.2116 10.8586 11.2691L10.5651 13.0542C10.5594 13.0895 10.5613 13.1257 10.5706 13.1602C10.58 13.1946 10.5967 13.2267 10.6194 13.254C10.6422 13.2813 10.6705 13.3032 10.7024 13.3183C10.7343 13.3334 10.7691 13.3413 10.8043 13.3414H12.5609C12.6183 13.3413 12.6737 13.3205 12.7175 13.2829C12.7613 13.2452 12.7906 13.193 12.8001 13.1355L13.0936 11.3504C13.0995 11.315 13.0977 11.2787 13.0884 11.2441C13.0791 11.2095 13.0625 11.1773 13.0398 11.1499C13.017 11.1225 12.9886 11.1004 12.9566 11.0853C12.9246 11.0701 12.8897 11.0622 12.8544 11.0622V11.0632ZM12.3553 12.8481H11.0907L11.3038 11.5562H12.5678L12.3553 12.8481ZM20.1151 3.42297C20.1149 3.18573 20.022 2.95828 19.8569 2.79053C19.6919 2.62277 19.4681 2.52841 19.2346 2.52813H17.4051V2.40462C17.4049 2.20219 17.3257 2.00812 17.1848 1.86498C17.044 1.72184 16.853 1.64133 16.6538 1.64111H16.5831C16.3839 1.64133 16.193 1.72184 16.0521 1.86498C15.9113 2.00812 15.832 2.20219 15.8318 2.40462V2.52813H13.6535V2.40462C13.6533 2.20219 13.5741 2.00812 13.4332 1.86498C13.2924 1.72184 13.1014 1.64133 12.9022 1.64111H12.8315C12.6323 1.64133 12.4414 1.72184 12.3005 1.86498C12.1597 2.00812 12.0804 2.20219 12.0802 2.40462V2.52813H9.89968V2.40462C9.89946 2.20223 9.82027 2.00819 9.67946 1.86505C9.53866 1.72192 9.34774 1.64139 9.14859 1.64111H9.07769C8.87854 1.64128 8.68758 1.72171 8.5467 1.86476C8.40582 2.00782 8.32652 2.20182 8.3262 2.40421V2.52772H6.49709C6.26361 2.52794 6.03974 2.62228 5.87463 2.79004C5.70951 2.9578 5.61663 3.18528 5.61636 3.42256V5.16222L5.13407 8.32206C4.53476 8.43983 3.9698 8.69506 3.48225 9.06831C2.99469 9.44156 2.59741 9.92299 2.32066 10.4759C2.04391 11.0288 1.895 11.6386 1.88527 12.2589C1.87555 12.8792 2.00527 13.4935 2.26455 14.0551C2.52382 14.6167 2.90582 15.1107 3.38142 15.4996C3.85703 15.8884 4.4137 16.1618 5.00902 16.2989C5.60433 16.436 6.22259 16.4332 6.81668 16.2907C7.41077 16.1482 7.96502 15.8698 8.4372 15.4767H17.6998C17.9121 15.468 18.1166 15.393 18.2853 15.2618C18.454 15.1306 18.5788 14.9496 18.6425 14.7436H19.186C19.4128 14.7497 19.6328 14.6645 19.7982 14.5068C19.9637 14.349 20.0613 14.1313 20.0698 13.9009L20.1127 5.22851C20.1142 5.21773 20.115 5.20687 20.1151 5.19598V3.42297ZM16.3172 2.40421C16.3173 2.3325 16.3453 2.26377 16.3952 2.21306C16.4451 2.16236 16.5128 2.13383 16.5833 2.13372H16.654C16.7246 2.13383 16.7922 2.16236 16.8421 2.21306C16.892 2.26377 16.9201 2.3325 16.9202 2.40421V3.21259C16.9202 3.24816 16.9133 3.28338 16.9 3.31625C16.8866 3.34911 16.867 3.37898 16.8422 3.40414C16.8175 3.4293 16.7881 3.44925 16.7558 3.46287C16.7235 3.47649 16.6888 3.4835 16.6538 3.4835H16.5831C16.5126 3.48344 16.4449 3.45495 16.395 3.40428C16.3451 3.35361 16.3171 3.2849 16.317 3.21321L16.3172 2.40421ZM12.5645 2.40421C12.5647 2.3325 12.5927 2.26377 12.6426 2.21306C12.6925 2.16236 12.7601 2.13383 12.8307 2.13372H12.9014C12.9719 2.13383 13.0396 2.16237 13.0894 2.21308C13.1393 2.26379 13.1673 2.33252 13.1674 2.40421V3.21259C13.1674 3.24815 13.1606 3.28337 13.1472 3.31623C13.1339 3.3491 13.1143 3.37896 13.0895 3.40413C13.0648 3.42929 13.0355 3.44925 13.0031 3.46287C12.9708 3.47649 12.9362 3.4835 12.9012 3.4835H12.8305C12.76 3.48344 12.6923 3.45495 12.6424 3.40428C12.5925 3.35361 12.5644 3.2849 12.5643 3.21321L12.5645 2.40421ZM8.81193 2.40421C8.81199 2.33252 8.84002 2.26379 8.88988 2.21308C8.93974 2.16237 9.00736 2.13383 9.0779 2.13372H9.14879C9.21933 2.13383 9.28695 2.16237 9.33681 2.21308C9.38667 2.26379 9.4147 2.33252 9.41475 2.40421V3.21259C9.4148 3.24815 9.40796 3.28337 9.39461 3.31623C9.38125 3.3491 9.36166 3.37896 9.33694 3.40413C9.31222 3.42929 9.28286 3.44925 9.25054 3.46287C9.21822 3.47649 9.18358 3.4835 9.14859 3.4835H9.07769C9.00717 3.48328 8.93962 3.45463 8.88987 3.40383C8.84012 3.35304 8.81223 3.28426 8.81234 3.21259L8.81193 2.40421ZM6.49749 3.02177H8.3262V3.21321C8.32641 3.41564 8.40564 3.60971 8.54648 3.75285C8.68733 3.89599 8.8783 3.9765 9.07749 3.97672H9.14839C9.34754 3.97645 9.53846 3.89591 9.67926 3.75278C9.82007 3.60965 9.89926 3.4156 9.89948 3.21321V3.02177H12.079V3.21321C12.0792 3.41564 12.1584 3.60971 12.2993 3.75285C12.4401 3.89599 12.6311 3.9765 12.8303 3.97672H12.901C12.9998 3.97677 13.0976 3.95705 13.1889 3.91868C13.2802 3.8803 13.3631 3.82403 13.433 3.75307C13.5029 3.68211 13.5583 3.59786 13.5962 3.50512C13.634 3.41239 13.6535 3.31298 13.6535 3.21259V3.02115H15.8318V3.21259C15.832 3.41502 15.9113 3.6091 16.0521 3.75223C16.193 3.89537 16.3839 3.97588 16.5831 3.9761H16.6538C16.853 3.97588 17.044 3.89537 17.1848 3.75223C17.3257 3.6091 17.4049 3.41502 17.4051 3.21259V3.02115H19.2344C19.3391 3.02153 19.4394 3.06401 19.5133 3.13931C19.5872 3.21461 19.6288 3.3166 19.629 3.42297V4.93496H6.1019V3.42297C6.102 3.31644 6.1437 3.2143 6.21782 3.13896C6.29195 3.06363 6.39246 3.02126 6.49729 3.02115L6.49749 3.02177ZM2.37096 12.3245C2.371 11.6157 2.57788 10.9228 2.96543 10.3335C3.35299 9.74416 3.90381 9.28489 4.54822 9.01374C5.19264 8.7426 5.90171 8.67176 6.58575 8.81018C7.26978 8.94861 7.89806 9.29008 8.39112 9.79142C8.88417 10.2927 9.21986 10.9314 9.35572 11.6266C9.49157 12.3219 9.4215 13.0424 9.15436 13.6972C8.88722 14.352 8.43501 14.9115 7.85493 15.305C7.27485 15.6986 6.59295 15.9085 5.89549 15.9082C4.96085 15.9067 4.06494 15.5286 3.40422 14.8568C2.74351 14.185 2.37192 13.2743 2.37096 12.3245ZM8.86318 9.58374C8.54361 9.22647 8.16439 8.92945 7.74303 8.70639L7.77746 8.49683H9.04204L8.86318 9.58374ZM17.6998 14.9837H8.93388C9.49995 14.3174 9.83815 13.4826 9.89772 12.6045C9.95729 11.7263 9.73501 10.8523 9.26425 10.1134C9.26842 10.1012 9.27154 10.0887 9.27357 10.0759L9.56728 8.29098C9.57316 8.2556 9.57139 8.21934 9.56209 8.18472C9.55278 8.1501 9.53617 8.11796 9.5134 8.09053C9.49063 8.0631 9.46226 8.04104 9.43025 8.02589C9.39824 8.01074 9.36337 8.00285 9.32805 8.00279H7.57207C7.5147 8.00289 7.45923 8.02362 7.41545 8.06129C7.37167 8.09896 7.34241 8.15116 7.33285 8.20864L7.28504 8.49889C6.84019 8.33207 6.36966 8.24709 5.89549 8.24796C5.80785 8.24796 5.72081 8.25091 5.63439 8.25681L6.06625 5.42819H19.5885L18.204 14.4939C18.1862 14.6212 18.1268 14.7387 18.0354 14.8275C17.9439 14.9164 17.8257 14.9714 17.6998 14.9837ZM19.186 14.2496H18.7331L19.6112 8.49827L19.5846 13.8976C19.5757 13.9972 19.5292 14.0894 19.4549 14.155C19.3806 14.2206 19.2843 14.2545 19.186 14.2496ZM16.8835 11.0632H15.1269C15.0696 11.0633 15.0141 11.084 14.9703 11.1217C14.9265 11.1594 14.8973 11.2116 14.8877 11.2691L14.594 13.0542C14.5883 13.0895 14.5902 13.1257 14.5996 13.1602C14.6089 13.1947 14.6256 13.2267 14.6484 13.254C14.6711 13.2814 14.6995 13.3033 14.7314 13.3184C14.7634 13.3335 14.7982 13.3413 14.8334 13.3414H16.5906C16.648 13.3413 16.7035 13.3206 16.7474 13.2829C16.7912 13.2453 16.8205 13.193 16.83 13.1355L17.1235 11.3504C17.1294 11.315 17.1277 11.2787 17.1184 11.2441C17.109 11.2095 17.0924 11.1773 17.0697 11.1499C17.0469 11.1225 17.0185 11.1004 16.9865 11.0853C16.9545 11.0701 16.9196 11.0622 16.8843 11.0622L16.8835 11.0632ZM16.3844 12.8481H15.1198L15.3323 11.5562H16.5969L16.3844 12.8481ZM5.89549 9.12818C5.27342 9.12835 4.66538 9.31596 4.14823 9.6673C3.63109 10.0186 3.22807 10.5179 2.99013 11.102C2.7522 11.6862 2.69004 12.3288 2.81151 12.9488C2.93298 13.5689 3.23263 14.1383 3.67257 14.5853C4.1125 15.0322 4.67297 15.3366 5.2831 15.4598C5.89322 15.5831 6.52561 15.5197 7.10029 15.2777C7.67498 15.0357 8.16615 14.626 8.51171 14.1003C8.85726 13.5746 9.04168 12.9566 9.04164 12.3245C9.04073 11.4769 8.70893 10.6643 8.11908 10.065C7.52923 9.46576 6.72953 9.12884 5.89549 9.12818ZM5.89549 15.0279C5.36938 15.0278 4.85514 14.8691 4.41778 14.5719C3.98041 14.2747 3.63957 13.8525 3.43835 13.3585C3.23713 12.8645 3.18457 12.3209 3.2873 11.7965C3.39004 11.2722 3.64346 10.7905 4.01553 10.4125C4.3876 10.0345 4.86161 9.77713 5.37762 9.67288C5.89362 9.56863 6.42846 9.62222 6.9145 9.82686C7.40055 10.0315 7.81597 10.378 8.10824 10.8226C8.40051 11.2671 8.55651 11.7898 8.55651 12.3245C8.55576 13.0414 8.27513 13.7287 7.77623 14.2355C7.27734 14.7424 6.60093 15.0274 5.89549 15.0279ZM5.44054 11.6147C5.4407 11.7375 5.48876 11.8552 5.57419 11.9421C5.65962 12.0289 5.77545 12.0778 5.8963 12.0781C6.12476 12.0779 6.34546 12.1623 6.51721 12.3154C6.68896 12.4685 6.80003 12.6799 6.82969 12.9101C6.85935 13.1403 6.80558 13.3736 6.6784 13.5665C6.55123 13.7594 6.35935 13.8986 6.13856 13.9583V14.2397C6.1407 14.2734 6.13602 14.3072 6.1248 14.339C6.11358 14.3708 6.09606 14.3999 6.07333 14.4246C6.0506 14.4492 6.02313 14.4689 5.99263 14.4823C5.96212 14.4957 5.92924 14.5027 5.89599 14.5027C5.86275 14.5027 5.82986 14.4957 5.79936 14.4823C5.76886 14.4689 5.74139 14.4492 5.71866 14.4246C5.69593 14.3999 5.67841 14.3708 5.66719 14.339C5.65597 14.3072 5.65129 14.2734 5.65343 14.2397V13.9583C5.45344 13.9037 5.27671 13.7837 5.15054 13.6168C5.02438 13.45 4.9558 13.2455 4.95541 13.0351C4.9594 12.9724 4.98668 12.9137 5.03174 12.8708C5.07679 12.8279 5.13622 12.804 5.19798 12.804C5.25973 12.804 5.31916 12.8279 5.36422 12.8708C5.40927 12.9137 5.43656 12.9724 5.44054 13.0351C5.4405 13.1267 5.46721 13.2163 5.5173 13.2926C5.56739 13.3688 5.63859 13.4282 5.72192 13.4633C5.80524 13.4984 5.89694 13.5076 5.9854 13.4897C6.07387 13.4719 6.15513 13.4277 6.21891 13.3629C6.28269 13.2981 6.32612 13.2155 6.34371 13.1256C6.3613 13.0357 6.35225 12.9425 6.31771 12.8578C6.28318 12.7732 6.22471 12.7008 6.14969 12.6499C6.07468 12.599 5.9865 12.5719 5.8963 12.5719C5.66785 12.572 5.44716 12.4877 5.27539 12.3346C5.10361 12.1816 4.99249 11.9703 4.96273 11.7401C4.93298 11.5099 4.98663 11.2766 5.11368 11.0836C5.24073 10.8907 5.4325 10.7513 5.65323 10.6914V10.4092C5.65721 10.3466 5.6845 10.2878 5.72955 10.2449C5.7746 10.202 5.83404 10.1781 5.89579 10.1781C5.95754 10.1781 6.01698 10.202 6.06203 10.2449C6.10708 10.2878 6.13437 10.3466 6.13836 10.4092V10.6906C6.33863 10.7451 6.51565 10.8652 6.64202 11.0322C6.76838 11.1993 6.83705 11.404 6.83739 11.6147C6.83953 11.6484 6.83485 11.6822 6.82363 11.714C6.81241 11.7458 6.79489 11.7749 6.77216 11.7996C6.74942 11.8242 6.72196 11.8439 6.69145 11.8573C6.66095 11.8707 6.62807 11.8776 6.59482 11.8776C6.56158 11.8776 6.52869 11.8707 6.49819 11.8573C6.46769 11.8439 6.44022 11.8242 6.41749 11.7996C6.39475 11.7749 6.37724 11.7458 6.36602 11.714C6.3548 11.6822 6.35011 11.6484 6.35226 11.6147C6.34872 11.4942 6.29916 11.3799 6.21407 11.296C6.12899 11.2121 6.01508 11.1651 5.8965 11.1651C5.77793 11.1651 5.66401 11.2121 5.57893 11.296C5.49384 11.3799 5.44407 11.4942 5.44054 11.6147Z" fill="#3D3D3D"/>
<path d="M13.3576 8.00382H11.6012C11.5438 8.00388 11.4882 8.02458 11.4444 8.06225C11.4006 8.09993 11.3713 8.15215 11.3617 8.20967L11.0682 9.99462C11.0624 10.03 11.0641 10.0663 11.0734 10.1009C11.0827 10.1355 11.0993 10.1676 11.1221 10.1951C11.1449 10.2225 11.1733 10.2446 11.2053 10.2597C11.2373 10.2749 11.2722 10.2827 11.3075 10.2828H13.0641C13.1214 10.2827 13.1769 10.262 13.2207 10.2243C13.2645 10.1866 13.2937 10.1344 13.3033 10.077L13.597 8.29201C13.6029 8.25661 13.6011 8.22033 13.5918 8.1857C13.5825 8.15107 13.5658 8.11892 13.543 8.09148C13.5203 8.06405 13.4919 8.042 13.4598 8.02685C13.4278 8.01171 13.3929 8.00385 13.3576 8.00382ZM12.8587 9.78877H11.5941L11.8066 8.49683H13.0711L12.8587 9.78877ZM17.3867 8.00382H15.6301C15.5727 8.00392 15.5172 8.02465 15.4734 8.06232C15.4297 8.09999 15.4004 8.15219 15.3909 8.20967L15.0973 9.99462C15.0915 10.03 15.0932 10.0663 15.1025 10.1009C15.1118 10.1355 15.1285 10.1676 15.1512 10.1951C15.174 10.2225 15.2024 10.2446 15.2344 10.2597C15.2664 10.2749 15.3013 10.2827 15.3366 10.2828H17.0932C17.1505 10.2827 17.206 10.262 17.2498 10.2243C17.2936 10.1866 17.3228 10.1344 17.3324 10.077L17.6259 8.29201C17.6318 8.25663 17.63 8.22037 17.6207 8.18575C17.6114 8.15113 17.5948 8.11899 17.572 8.09156C17.5492 8.06413 17.5209 8.04207 17.4889 8.02692C17.4569 8.01177 17.422 8.00388 17.3867 8.00382ZM16.8876 9.78877H15.623L15.8355 8.49683H17.1L16.8876 9.78877ZM12.8544 11.0632H11.0978C11.0404 11.0633 10.985 11.084 10.9412 11.1217C10.8974 11.1594 10.8682 11.2116 10.8586 11.2691L10.5651 13.0542C10.5594 13.0895 10.5613 13.1257 10.5706 13.1602C10.58 13.1946 10.5967 13.2267 10.6194 13.254C10.6422 13.2813 10.6705 13.3032 10.7024 13.3183C10.7343 13.3334 10.7691 13.3413 10.8043 13.3414H12.5609C12.6183 13.3413 12.6737 13.3205 12.7175 13.2829C12.7613 13.2452 12.7906 13.193 12.8001 13.1355L13.0936 11.3504C13.0995 11.315 13.0977 11.2787 13.0884 11.2441C13.0791 11.2095 13.0625 11.1773 13.0398 11.1499C13.017 11.1225 12.9886 11.1004 12.9566 11.0853C12.9246 11.0701 12.8897 11.0622 12.8544 11.0622V11.0632ZM12.3553 12.8481H11.0907L11.3038 11.5562H12.5678L12.3553 12.8481ZM20.1151 3.42297C20.1149 3.18573 20.022 2.95828 19.8569 2.79053C19.6919 2.62277 19.4681 2.52841 19.2346 2.52813H17.4051V2.40462C17.4049 2.20219 17.3257 2.00812 17.1848 1.86498C17.044 1.72184 16.853 1.64133 16.6538 1.64111H16.5831C16.3839 1.64133 16.193 1.72184 16.0521 1.86498C15.9113 2.00812 15.832 2.20219 15.8318 2.40462V2.52813H13.6535V2.40462C13.6533 2.20219 13.5741 2.00812 13.4332 1.86498C13.2924 1.72184 13.1014 1.64133 12.9022 1.64111H12.8315C12.6323 1.64133 12.4414 1.72184 12.3005 1.86498C12.1597 2.00812 12.0804 2.20219 12.0802 2.40462V2.52813H9.89968V2.40462C9.89946 2.20223 9.82027 2.00819 9.67946 1.86505C9.53866 1.72192 9.34774 1.64139 9.14859 1.64111H9.07769C8.87854 1.64128 8.68758 1.72171 8.5467 1.86476C8.40582 2.00782 8.32652 2.20182 8.3262 2.40421V2.52772H6.49709C6.26361 2.52794 6.03974 2.62228 5.87463 2.79004C5.70951 2.9578 5.61663 3.18528 5.61636 3.42256V5.16222L5.13407 8.32206C4.53476 8.43983 3.9698 8.69506 3.48225 9.06831C2.99469 9.44156 2.59741 9.92299 2.32066 10.4759C2.04391 11.0288 1.895 11.6386 1.88527 12.2589C1.87555 12.8792 2.00527 13.4935 2.26455 14.0551C2.52382 14.6167 2.90582 15.1107 3.38142 15.4996C3.85703 15.8884 4.4137 16.1618 5.00902 16.2989C5.60433 16.436 6.22259 16.4332 6.81668 16.2907C7.41077 16.1482 7.96502 15.8698 8.4372 15.4767H17.6998C17.9121 15.468 18.1166 15.393 18.2853 15.2618C18.454 15.1306 18.5788 14.9496 18.6425 14.7436H19.186C19.4128 14.7497 19.6328 14.6645 19.7982 14.5068C19.9637 14.349 20.0613 14.1313 20.0698 13.9009L20.1127 5.22851C20.1142 5.21773 20.115 5.20687 20.1151 5.19598V3.42297ZM16.3172 2.40421C16.3173 2.3325 16.3453 2.26377 16.3952 2.21306C16.4451 2.16236 16.5128 2.13383 16.5833 2.13372H16.654C16.7246 2.13383 16.7922 2.16236 16.8421 2.21306C16.892 2.26377 16.9201 2.3325 16.9202 2.40421V3.21259C16.9202 3.24816 16.9133 3.28338 16.9 3.31625C16.8866 3.34911 16.867 3.37898 16.8422 3.40414C16.8175 3.4293 16.7881 3.44925 16.7558 3.46287C16.7235 3.47649 16.6888 3.4835 16.6538 3.4835H16.5831C16.5126 3.48344 16.4449 3.45495 16.395 3.40428C16.3451 3.35361 16.3171 3.2849 16.317 3.21321L16.3172 2.40421ZM12.5645 2.40421C12.5647 2.3325 12.5927 2.26377 12.6426 2.21306C12.6925 2.16236 12.7601 2.13383 12.8307 2.13372H12.9014C12.9719 2.13383 13.0396 2.16237 13.0894 2.21308C13.1393 2.26379 13.1673 2.33252 13.1674 2.40421V3.21259C13.1674 3.24815 13.1606 3.28337 13.1472 3.31623C13.1339 3.3491 13.1143 3.37896 13.0895 3.40413C13.0648 3.42929 13.0355 3.44925 13.0031 3.46287C12.9708 3.47649 12.9362 3.4835 12.9012 3.4835H12.8305C12.76 3.48344 12.6923 3.45495 12.6424 3.40428C12.5925 3.35361 12.5644 3.2849 12.5643 3.21321L12.5645 2.40421ZM8.81193 2.40421C8.81199 2.33252 8.84002 2.26379 8.88988 2.21308C8.93974 2.16237 9.00736 2.13383 9.0779 2.13372H9.14879C9.21933 2.13383 9.28695 2.16237 9.33681 2.21308C9.38667 2.26379 9.4147 2.33252 9.41475 2.40421V3.21259C9.4148 3.24815 9.40796 3.28337 9.39461 3.31623C9.38125 3.3491 9.36166 3.37896 9.33694 3.40413C9.31222 3.42929 9.28286 3.44925 9.25054 3.46287C9.21822 3.47649 9.18358 3.4835 9.14859 3.4835H9.07769C9.00717 3.48328 8.93962 3.45463 8.88987 3.40383C8.84012 3.35304 8.81223 3.28426 8.81234 3.21259L8.81193 2.40421ZM6.49749 3.02177H8.3262V3.21321C8.32641 3.41564 8.40564 3.60971 8.54648 3.75285C8.68733 3.89599 8.8783 3.9765 9.07749 3.97672H9.14839C9.34754 3.97645 9.53846 3.89591 9.67926 3.75278C9.82007 3.60965 9.89926 3.4156 9.89948 3.21321V3.02177H12.079V3.21321C12.0792 3.41564 12.1584 3.60971 12.2993 3.75285C12.4401 3.89599 12.6311 3.9765 12.8303 3.97672H12.901C12.9998 3.97677 13.0976 3.95705 13.1889 3.91868C13.2802 3.8803 13.3631 3.82403 13.433 3.75307C13.5029 3.68211 13.5583 3.59786 13.5962 3.50512C13.634 3.41239 13.6535 3.31298 13.6535 3.21259V3.02115H15.8318V3.21259C15.832 3.41502 15.9113 3.6091 16.0521 3.75223C16.193 3.89537 16.3839 3.97588 16.5831 3.9761H16.6538C16.853 3.97588 17.044 3.89537 17.1848 3.75223C17.3257 3.6091 17.4049 3.41502 17.4051 3.21259V3.02115H19.2344C19.3391 3.02153 19.4394 3.06401 19.5133 3.13931C19.5872 3.21461 19.6288 3.3166 19.629 3.42297V4.93496H6.1019V3.42297C6.102 3.31644 6.1437 3.2143 6.21782 3.13896C6.29195 3.06363 6.39246 3.02126 6.49729 3.02115L6.49749 3.02177ZM2.37096 12.3245C2.371 11.6157 2.57788 10.9228 2.96543 10.3335C3.35299 9.74416 3.90381 9.28489 4.54822 9.01374C5.19264 8.7426 5.90171 8.67176 6.58575 8.81018C7.26978 8.94861 7.89806 9.29008 8.39112 9.79142C8.88417 10.2927 9.21986 10.9314 9.35572 11.6266C9.49157 12.3219 9.4215 13.0424 9.15436 13.6972C8.88722 14.352 8.43501 14.9115 7.85493 15.305C7.27485 15.6986 6.59295 15.9085 5.89549 15.9082C4.96085 15.9067 4.06494 15.5286 3.40422 14.8568C2.74351 14.185 2.37192 13.2743 2.37096 12.3245ZM8.86318 9.58374C8.54361 9.22647 8.16439 8.92945 7.74303 8.70639L7.77746 8.49683H9.04204L8.86318 9.58374ZM17.6998 14.9837H8.93388C9.49995 14.3174 9.83815 13.4826 9.89772 12.6045C9.95729 11.7263 9.73501 10.8523 9.26425 10.1134C9.26842 10.1012 9.27154 10.0887 9.27357 10.0759L9.56728 8.29098C9.57316 8.2556 9.57139 8.21934 9.56209 8.18472C9.55278 8.1501 9.53617 8.11796 9.5134 8.09053C9.49063 8.0631 9.46226 8.04104 9.43025 8.02589C9.39824 8.01074 9.36337 8.00285 9.32805 8.00279H7.57207C7.5147 8.00289 7.45923 8.02362 7.41545 8.06129C7.37167 8.09896 7.34241 8.15116 7.33285 8.20864L7.28504 8.49889C6.84019 8.33207 6.36966 8.24709 5.89549 8.24796C5.80785 8.24796 5.72081 8.25091 5.63439 8.25681L6.06625 5.42819H19.5885L18.204 14.4939C18.1862 14.6212 18.1268 14.7387 18.0354 14.8275C17.9439 14.9164 17.8257 14.9714 17.6998 14.9837ZM19.186 14.2496H18.7331L19.6112 8.49827L19.5846 13.8976C19.5757 13.9972 19.5292 14.0894 19.4549 14.155C19.3806 14.2206 19.2843 14.2545 19.186 14.2496ZM16.8835 11.0632H15.1269C15.0696 11.0633 15.0141 11.084 14.9703 11.1217C14.9265 11.1594 14.8973 11.2116 14.8877 11.2691L14.594 13.0542C14.5883 13.0895 14.5902 13.1257 14.5996 13.1602C14.6089 13.1947 14.6256 13.2267 14.6484 13.254C14.6711 13.2814 14.6995 13.3033 14.7314 13.3184C14.7634 13.3335 14.7982 13.3413 14.8334 13.3414H16.5906C16.648 13.3413 16.7035 13.3206 16.7474 13.2829C16.7912 13.2453 16.8205 13.193 16.83 13.1355L17.1235 11.3504C17.1294 11.315 17.1277 11.2787 17.1184 11.2441C17.109 11.2095 17.0924 11.1773 17.0697 11.1499C17.0469 11.1225 17.0185 11.1004 16.9865 11.0853C16.9545 11.0701 16.9196 11.0622 16.8843 11.0622L16.8835 11.0632ZM16.3844 12.8481H15.1198L15.3323 11.5562H16.5969L16.3844 12.8481ZM5.89549 9.12818C5.27342 9.12835 4.66538 9.31596 4.14823 9.6673C3.63109 10.0186 3.22807 10.5179 2.99013 11.102C2.7522 11.6862 2.69004 12.3288 2.81151 12.9488C2.93298 13.5689 3.23263 14.1383 3.67257 14.5853C4.1125 15.0322 4.67297 15.3366 5.2831 15.4598C5.89322 15.5831 6.52561 15.5197 7.10029 15.2777C7.67498 15.0357 8.16615 14.626 8.51171 14.1003C8.85726 13.5746 9.04168 12.9566 9.04164 12.3245C9.04073 11.4769 8.70893 10.6643 8.11908 10.065C7.52923 9.46576 6.72953 9.12884 5.89549 9.12818ZM5.89549 15.0279C5.36938 15.0278 4.85514 14.8691 4.41778 14.5719C3.98041 14.2747 3.63957 13.8525 3.43835 13.3585C3.23713 12.8645 3.18457 12.3209 3.2873 11.7965C3.39004 11.2722 3.64346 10.7905 4.01553 10.4125C4.3876 10.0345 4.86161 9.77713 5.37762 9.67288C5.89362 9.56863 6.42846 9.62222 6.9145 9.82686C7.40055 10.0315 7.81597 10.378 8.10824 10.8226C8.40051 11.2671 8.55651 11.7898 8.55651 12.3245C8.55576 13.0414 8.27513 13.7287 7.77623 14.2355C7.27734 14.7424 6.60093 15.0274 5.89549 15.0279ZM5.44054 11.6147C5.4407 11.7375 5.48876 11.8552 5.57419 11.9421C5.65962 12.0289 5.77545 12.0778 5.8963 12.0781C6.12476 12.0779 6.34546 12.1623 6.51721 12.3154C6.68896 12.4685 6.80003 12.6799 6.82969 12.9101C6.85935 13.1403 6.80558 13.3736 6.6784 13.5665C6.55123 13.7594 6.35935 13.8986 6.13856 13.9583V14.2397C6.1407 14.2734 6.13602 14.3072 6.1248 14.339C6.11358 14.3708 6.09606 14.3999 6.07333 14.4246C6.0506 14.4492 6.02313 14.4689 5.99263 14.4823C5.96212 14.4957 5.92924 14.5027 5.89599 14.5027C5.86275 14.5027 5.82986 14.4957 5.79936 14.4823C5.76886 14.4689 5.74139 14.4492 5.71866 14.4246C5.69593 14.3999 5.67841 14.3708 5.66719 14.339C5.65597 14.3072 5.65129 14.2734 5.65343 14.2397V13.9583C5.45344 13.9037 5.27671 13.7837 5.15054 13.6168C5.02438 13.45 4.9558 13.2455 4.95541 13.0351C4.9594 12.9724 4.98668 12.9137 5.03174 12.8708C5.07679 12.8279 5.13622 12.804 5.19798 12.804C5.25973 12.804 5.31916 12.8279 5.36422 12.8708C5.40927 12.9137 5.43656 12.9724 5.44054 13.0351C5.4405 13.1267 5.46721 13.2163 5.5173 13.2926C5.56739 13.3688 5.63859 13.4282 5.72192 13.4633C5.80524 13.4984 5.89694 13.5076 5.9854 13.4897C6.07387 13.4719 6.15513 13.4277 6.21891 13.3629C6.28269 13.2981 6.32612 13.2155 6.34371 13.1256C6.3613 13.0357 6.35225 12.9425 6.31771 12.8578C6.28318 12.7732 6.22471 12.7008 6.14969 12.6499C6.07468 12.599 5.9865 12.5719 5.8963 12.5719C5.66785 12.572 5.44716 12.4877 5.27539 12.3346C5.10361 12.1816 4.99249 11.9703 4.96273 11.7401C4.93298 11.5099 4.98663 11.2766 5.11368 11.0836C5.24073 10.8907 5.4325 10.7513 5.65323 10.6914V10.4092C5.65721 10.3466 5.6845 10.2878 5.72955 10.2449C5.7746 10.202 5.83404 10.1781 5.89579 10.1781C5.95754 10.1781 6.01698 10.202 6.06203 10.2449C6.10708 10.2878 6.13437 10.3466 6.13836 10.4092V10.6906C6.33863 10.7451 6.51565 10.8652 6.64202 11.0322C6.76838 11.1993 6.83705 11.404 6.83739 11.6147C6.83953 11.6484 6.83485 11.6822 6.82363 11.714C6.81241 11.7458 6.79489 11.7749 6.77216 11.7996C6.74942 11.8242 6.72196 11.8439 6.69145 11.8573C6.66095 11.8707 6.62807 11.8776 6.59482 11.8776C6.56158 11.8776 6.52869 11.8707 6.49819 11.8573C6.46769 11.8439 6.44022 11.8242 6.41749 11.7996C6.39475 11.7749 6.37724 11.7458 6.36602 11.714C6.3548 11.6822 6.35011 11.6484 6.35226 11.6147C6.34872 11.4942 6.29916 11.3799 6.21407 11.296C6.12899 11.2121 6.01508 11.1651 5.8965 11.1651C5.77793 11.1651 5.66401 11.2121 5.57893 11.296C5.49384 11.3799 5.44407 11.4942 5.44054 11.6147Z" stroke="white" stroke-width="2" mask="url(#path-1-outside-1_4_22)"/>
</svg>
